<?xml version="1.0" standalone="no"?><!DOCTYPE svg PUBLIC "-//W3C//DTD SVG 1.1//EN" "http://www.w3.org/Graphics/SVG/1.1/DTD/svg11.dtd"><svg t="1596377518011" class="icon" viewBox="0 0 1024 1024" version="1.1" xmlns="http://www.w3.org/2000/svg" p-id="1112" xmlns:xlink="http://www.w3.org/1999/xlink" width="200" height="200"><defs><style type="text/css"></style></defs><path d="M0 0h1024v1024H0z" fill="#FFFFFF" p-id="1113"></path><path d="M295.168 222.72m45.312 0l516.48 0q45.312 0 45.312 45.312l0 4.992q0 45.312-45.312 45.312l-516.48 0q-45.312 0-45.312-45.312l0-4.992q0-45.312 45.312-45.312Z" fill="#0082FD" p-id="1114"></path><path d="M179.072 270.464m-57.344 0a57.344 57.344 0 1 0 114.688 0 57.344 57.344 0 1 0-114.688 0Z" fill="#0082FD" p-id="1115"></path><path d="M295.168 464.256m45.312 0l516.48 0q45.312 0 45.312 45.312l0 4.992q0 45.312-45.312 45.312l-516.48 0q-45.312 0-45.312-45.312l0-4.992q0-45.312 45.312-45.312Z" fill="#ABE3FF" p-id="1116"></path><path d="M179.072 512m-57.344 0a57.344 57.344 0 1 0 114.688 0 57.344 57.344 0 1 0-114.688 0Z" fill="#ABE3FF" p-id="1117"></path><path d="M295.168 705.792m45.312 0l516.48 0q45.312 0 45.312 45.312l0 4.992q0 45.312-45.312 45.312l-516.48 0q-45.312 0-45.312-45.312l0-4.992q0-45.312 45.312-45.312Z" fill="#0082FD" p-id="1118"></path><path d="M179.072 753.536m-57.344 0a57.344 57.344 0 1 0 114.688 0 57.344 57.344 0 1 0-114.688 0Z" fill="#0082FD" p-id="1119"></path></svg>