<?xml version="1.0" standalone="no"?><!DOCTYPE svg PUBLIC "-//W3C//DTD SVG 1.1//EN" "http://www.w3.org/Graphics/SVG/1.1/DTD/svg11.dtd"><svg t="1596377234876" class="icon" viewBox="0 0 1024 1024" version="1.1" xmlns="http://www.w3.org/2000/svg" p-id="1966" xmlns:xlink="http://www.w3.org/1999/xlink" width="200" height="200"><defs><style type="text/css"></style></defs><path d="M0 0h1024v1024H0z" fill="#FFFFFF" p-id="1967" data-spm-anchor-id="a313x.7781069.0.i2"></path><path d="M429.568 796.928a345.6 345.6 0 1 1 345.6-345.6 346.496 346.496 0 0 1-345.6 345.6z m0-622.976a276.864 276.864 0 1 0 276.864 276.864 277.248 277.248 0 0 0-276.864-276.864z" fill="#0082FD" p-id="1968"></path><path d="M378.752 298.496m-79.744 0a79.744 79.744 0 1 0 159.488 0 79.744 79.744 0 1 0-159.488 0Z" fill="#ABE3FF" p-id="1969"></path><path d="M256.384 404.352m-29.952 0a29.952 29.952 0 1 0 59.904 0 29.952 29.952 0 1 0-59.904 0Z" fill="#ABE3FF" p-id="1970"></path><path d="M645.4784 690.0608l65.792-65.792 229.184 229.1584-65.8048 65.8048z" fill="#0082FD" p-id="1971"></path></svg>